PathFileType	3	(X/Y/Z)	C:\Users\koon_\Desktop\
DataRate	CameraRate	NumFrames	NumMarkers	Units	OrigDataRate	OrigDataStartFrame	OrigNumFrames
100.0	100.0	11	27	mm	100.0	1885	5024	
Frame#	Time	get:LFHD			get:RFHD			get:LBHD			get:RBHD			get:C7			get:T10			get:CLAV			get:STRN			get:RBAK			get:LSHO			get:LUPA			get:LELB			get:LFRA			get:LWRA			get:LWRB			get:LFIN			get:RSHO			get:RUPA			get:RELB			get:RFRA			get:RWRA			get:RWRB			get:RFIN			get:LASI			get:RASI			get:LPSI			get:RPSI			
		X1	Y1	Z1	X2	Y2	Z2	X3	Y3	Z3	X4	Y4	Z4	X5	Y5	Z5	X6	Y6	Z6	X7	Y7	Z7	X8	Y8	Z8	X9	Y9	Z9	X10	Y10	Z10	X11	Y11	Z11	X12	Y12	Z12	X13	Y13	Z13	X14	Y14	Z14	X15	Y15	Z15	X16	Y16	Z16	X17	Y17	Z17	X18	Y18	Z18	X19	Y19	Z19	X20	Y20	Z20	X21	Y21	Z21	X22	Y22	Z22	X23	Y23	Z23	X24	Y24	Z24	X25	Y25	Z25	X26	Y26	Z26	X27	Y27	Z27	
1885	18.84	48.403553	1528.1283	-49.461052	-98.36113	1523.4614	-51.598885	47.74527	1541.397	-186.6429	-103.7399	1530.9956	-185.33919	-22.038134	1327.4335	-238.76056	-6.7319741	1112.9852	-257.95993	-8.3147039	1238.7469	-39.098248	-0.82015771	1087.8395	9.785779	-112.26864	1248.5819	-252.18613	131.39116	1340.3179	-168.58896	257.49152	1217.1678	-63.494503	349.73978	1133.0323	-51.211262	339.86993	1128.3745	48.893318	384.5914	1014.0631	175.47054	448.97775	1043.626	149.47667	459.53696	1020.7278	221.51483	-148.94591	1326.8572	-127.23205	-222.36559	1212.5974	-92.676254	-260.19702	991.64136	-102.19827	-177.32471	879.87378	-7.5125237	-144.58531	783.60419	13.682109	-219.30318	787.56146	12.564509	-165.70216	717.54877	45.803928	136.41452	893.00256	-61.621174	-156.03906	906.5545	-38.458862	30.715714	925.8017	-238.5226	-57.057648	924.09863	-235.424
1886	18.85	48.119274	1528.2997	-49.231182	-98.555946	1523.4467	-51.711002	47.914127	1541.3569	-186.39522	-103.5843	1530.7621	-185.50102	-21.537569	1327.3989	-238.55789	-6.1633496	1112.9633	-257.89368	-8.2931166	1238.6079	-38.906544	-0.98142678	1087.6835	9.8242416	-111.67723	1248.547	-252.2307	132.21217	1339.8544	-168.0719	258.13437	1212.9392	-64.54866	347.9946	1127.7826	-53.228485	336.47766	1121.6366	46.565937	376.44012	1005.5202	172.76027	441.82782	1034.4412	148.76532	450.27478	1010.8665	220.71376	-148.71129	1326.7513	-127.34252	-222.59201	1212.7408	-93.035667	-261.89429	991.92096	-102.13081	-177.60307	881.5827	-6.379241	-143.91098	785.8429	15.675027	-218.79723	788.89734	14.245792	-164.28662	719.93182	48.533131	136.32835	893.16943	-60.810055	-155.90756	906.56689	-38.707237	31.417522	925.87915	-238.30832	-56.393322	924.13977	-235.35316
1887	18.86	47.880028	1528.5208	-48.941288	-98.804214	1523.3805	-51.918297	48.10004	1541.3602	-186.14865	-103.39867	1530.5089	-185.7831	-20.99367	1327.3536	-238.38188	-5.6180038	1112.8961	-257.82367	-8.2147894	1238.5105	-38.786026	-1.0820713	1087.5234	9.9070959	-111.11127	1248.4655	-252.18919	132.99484	1339.4198	-167.53883	258.76227	1208.6292	-65.894028	346.15668	1122.5485	-55.485641	332.70508	1114.8986	44.383846	367.73514	997.15393	170.00368	434.26907	1024.9998	147.82681	440.47565	1000.5253	219.63913	-148.43282	1326.7019	-127.47653	-222.86519	1212.9434	-93.316452	-263.71405	992.26074	-101.64671	-177.92896	883.59802	-5.3063745	-143.095	788.49176	17.880005	-217.91409	790.97272	17.558117	-162.61935	722.75745	51.577217	136.30685	892.93323	-59.976833	-155.75844	906.58899	-38.918652	32.098591	925.91223	-238.06897	-55.756592	924.1424	-235.28818
1888	18.87	47.634743	1528.7023	-48.664589	-99.033936	1523.2788	-52.194965	48.298073	1541.3608	-185.86644	-103.12955	1530.1982	-186.01399	-20.453827	1327.2657	-238.15773	-5.1189618	1112.8677	-257.7583	-8.0746832	1238.3403	-38.704128	-1.0985634	1087.3867	9.9724283	-110.64497	1248.4026	-252.14827	133.89009	1339.0176	-167.02386	259.13089	1204.2513	-66.787582	344.45874	1117.1563	-57.425419	328.6976	1108.2144	41.836399	358.70059	988.36621	166.68475	426.36029	1015.6796	147.04953	429.98428	989.71509	218.48297	-148.10852	1326.6848	-127.46925	-223.14012	1213.2335	-93.501335	-265.70929	992.7514	-101.63206	-178.27139	885.92291	-3.9879339	-142.22386	791.52545	20.138876	-217.06578	793.1568	20.215464	-160.79077	726.08801	54.7715	136.99234	892.80725	-60.138241	-155.59041	906.62927	-39.068516	32.750977	925.94159	-237.88353	-55.09726	924.22229	-235.28951
1889	18.88	47.386097	1528.921	-48.382416	-99.28656	1523.1907	-52.493698	48.496586	1541.4225	-185.64041	-102.87968	1529.9308	-186.39821	-19.946676	1327.1832	-238.00966	-4.6335087	1112.8064	-257.72134	-7.8599229	1238.2147	-38.604465	-1.0287939	1087.2478	10.031401	-110.16933	1248.3722	-252.05771	134.78946	1338.6819	-166.52725	259.20685	1200.0474	-67.848984	342.65921	1111.634	-59.241814	324.59991	1101.593	39.524117	349.23996	979.90753	163.39598	417.8031	1005.9324	145.97758	419.03293	978.67444	217.19707	-147.74362	1326.7061	-127.57476	-223.40691	1213.5562	-93.587196	-267.85782	993.36945	-101.29086	-178.58578	888.6214	-2.7542722	-141.15244	794.9848	22.517237	-216.10558	795.4837	22.430573	-158.69507	729.87152	58.160049	137.21844	892.74274	-59.705261	-155.40244	906.64398	-39.287472	33.401379	925.93549	-237.71687	-54.445652	924.20422	-235.19524
1890	18.89	47.131142	1529.0942	-48.124065	-99.514671	1523.0387	-52.766041	48.744534	1541.4904	-185.3835	-102.6227	1529.595	-186.55594	-19.415815	1327.1459	-237.92854	-4.213748	1112.7484	-257.5423	-7.5754986	1238.0852	-38.526516	-0.86282223	1087.0828	10.153466	-109.73502	1248.3381	-251.95432	135.73891	1338.3925	-166.04588	258.94345	1196.0317	-68.606102	340.63062	1105.9761	-61.054039	320.21603	1094.9603	37.099083	339.33569	971.72559	160.12283	408.99683	996.52905	144.60367	407.64355	967.57031	215.64299	-147.30421	1326.7279	-127.49434	-223.59082	1213.9871	-93.519913	-270.11975	994.05109	-100.7018	-178.93526	891.67725	-1.5190364	-139.96959	798.90564	25.06649	-214.90945	798.40082	25.406357	-156.48332	734.0498	61.761875	137.39096	892.70923	-59.235477	-155.19174	906.67065	-39.474358	34.038574	925.88861	-237.44806	-53.876068	924.19501	-235.15701
1891	18.9	46.936153	1529.3092	-47.888443	-99.714157	1522.9237	-53.028484	48.991371	1541.594	-185.15318	-102.35831	1529.3453	-186.80231	-18.898363	1327.0608	-237.69293	-3.8367355	1112.7017	-257.33841	-7.1323104	1237.9808	-38.429966	-0.61479425	1086.9921	10.172362	-109.33823	1248.3507	-251.77356	136.74762	1338.1005	-165.55153	257.88562	1191.903	-69.006577	338.16113	1100.1442	-62.85075	315.59543	1088.29	34.518257	329.05289	963.85266	156.6904	399.65338	986.90198	143.20853	395.64249	956.45819	213.82518	-146.76981	1326.7673	-127.38873	-223.67113	1214.4996	-93.354126	-272.52133	994.81659	-99.940277	-179.21404	895.02661	0.0020239796	-138.70711	803.25012	27.721302	-213.56061	802.03625	29.102686	-154.08229	738.76062	65.405762	137.75967	892.63049	-58.86565	-154.92926	906.69055	-39.605289	34.598557	925.86078	-237.26813	-53.260761	924.24878	-235.23055
1892	18.91	46.734852	1529.4945	-47.676357	-99.864944	1522.8319	-53.328609	49.25629	1541.6798	-184.91794	-102.08412	1529.1396	-187.11562	-18.270103	1327.0348	-237.57359	-3.4475126	1112.7026	-257.21817	-6.7353582	1237.8905	-38.317032	-0.23041436	1086.8823	10.220227	-108.93546	1248.4232	-251.69736	137.77647	1337.7272	-165.0027	256.23743	1187.6653	-69.204803	335.1933	1094.2096	-64.778336	310.36676	1081.3955	31.76104	318.56064	956.31128	153.27641	390.13757	977.58636	141.46516	383.19431	945.41467	211.94884	-146.20525	1326.8224	-127.45904	-223.78616	1215.0511	-93.259186	-275.02444	995.6861	-99.07338	-179.59256	898.80798	1.4122746	-137.2412	808.06842	30.562202	-212.13373	805.66602	32.358986	-151.42197	743.80676	69.297699	138.09186	892.53217	-58.590023	-154.65504	906.7226	-39.703144	35.161209	925.80542	-237.07684	-52.689144	924.18066	-235.09744
1893	18.92	46.542675	1529.714	-47.421711	-99.999283	1522.7488	-53.634449	49.546066	1541.7892	-184.72656	-101.76921	1528.9669	-187.43661	-17.613462	1327.0486	-237.39383	-3.0945873	1112.7208	-257.12427	-6.2962708	1237.7712	-38.190979	0.16892113	1086.7529	10.286798	-108.49861	1248.4153	-251.51228	138.84528	1337.2549	-164.39442	254.36011	1183.2826	-69.41011	331.94955	1088.2052	-66.713699	305.32306	1074.8895	29.245926	307.74796	948.89813	149.7509	380.22253	968.18719	139.77298	370.43491	934.64172	209.84535	-145.56664	1326.8605	-127.4447	-223.90559	1215.6439	-93.247108	-277.58911	996.82477	-99.083641	-179.76588	902.80347	3.0627258	-135.76518	813.31879	33.510338	-210.60797	809.40894	35.362309	-148.52243	749.29016	73.072319	138.41385	892.48724	-58.283024	-154.32196	906.74689	-39.820229	35.693394	925.7359	-236.88968	-52.147167	924.17395	-235.07469
1894	18.93	46.406067	1529.8878	-47.219791	-100.10718	1522.6929	-53.86964	49.840118	1541.8771	-184.53763	-101.43873	1528.7969	-187.77773	-16.920486	1327.0195	-237.2261	-2.734581	1112.7565	-257.05798	-5.7470727	1237.7056	-38.102322	0.56539226	1086.6288	10.384607	-108.02679	1248.4384	-251.43567	139.897	1336.639	-163.95322	252.4173	1178.8834	-69.626854	328.5885	1082.2155	-68.446701	300.04929	1068.428	26.860277	296.65314	941.68451	146.23903	369.87466	958.86151	137.96152	357.31607	924.19446	207.55049	-144.96582	1326.9082	-127.48878	-224.08643	1216.2867	-93.186707	-280.09091	997.84247	-97.454086	-179.99812	907.17889	4.680656	-134.09869	818.68268	36.236088	-208.84496	813.82001	39.041485	-145.41139	755.18042	77.091927	138.82626	892.45935	-58.105766	-153.96989	906.77759	-39.867374	36.204113	925.67889	-236.78957	-51.689388	924.11713	-234.96968
1895	18.94	46.265667	1530.087	-47.048309	-100.19592	1522.6663	-54.197258	50.142597	1541.9358	-184.36511	-101.06235	1528.6768	-188.25861	-16.16901	1327.0067	-237.05284	-2.4099698	1112.7766	-256.94733	-5.1939411	1237.5822	-37.839333	0.9705168	1086.4617	10.479296	-107.47329	1248.4818	-251.39204	141.06299	1335.9285	-163.39609	250.47589	1174.4216	-69.885536	325.09177	1076.3057	-69.846634	294.5625	1062.1531	24.854811	285.20129	934.52533	142.62813	359.1199	949.60242	136.06895	343.72131	914.03992	205.2514	-144.29396	1326.9716	-127.53251	-224.26364	1216.9894	-93.165268	-282.76566	999.09863	-96.482674	-180.27686	911.80554	6.5413866	-132.3858	825.48083	40.620838	-207.01292	818.59973	42.799858	-142.19582	761.47443	80.940758	139.21854	892.40778	-57.939148	-153.55243	906.22211	-41.072765	36.688683	925.54657	-236.54755	-51.203346	924.07739	-234.89674
